<svg xmlns="http://www.w3.org/2000/svg" viewBox="0 0 314 314"><defs><style>.cls-1{fill:#fff;opacity:0.75}</style></defs>
<path class="cls-1" d="M253.52,174q-19.52-11-25-11-4,0-6.24,6.14c-1.49,4.09-4.49,6.11-9,6.11-1.84,0-5.58-.66-11.25-2-3.17,4.82-4.76,7.92-4.76,9.24,0,1.85,1.35,4,4.09,6.51s5,3.73,6.91,3.73a20.3,20.3,0,0,0,4.85-.76,22.21,22.21,0,0,1,4.09-.76q3.08,0,3.07,11.26,0,10.74-5,33Q208.83,210,201.58,210a12.65,12.65,0,0,0-4.12,1.51,12.53,12.53,0,0,1-4.63,1.49c-4.82,0-9.14-4.42-13-13.24-7.66,1.15-11.49,5.08-11.49,11.75a9.11,9.11,0,0,0,4.63,8c3.07,2,4.62,3.44,4.62,4.26,0,4.49-6.57,11.43-19.75,20.74Q147.33,252,143.34,255a68,68,0,0,0,7-11.75c2.67-5.49,4-9.75,4-12.75,0-1.65-1.91-4-5.74-7s-5.75-6.17-5.75-9.51c0-2.84,1-6.34,3-10.5a10,10,0,0,0-7.76-3.76c-6.67,0-10,2.18-10,6.5V213q.25,8.26-12.51,8.25c-6.51,0-17.4-1.52-32.76-4.49,17.34-4.32,26-9.34,26-15,0,.66-.33-1.32-1-6-.66-5.15,3-9.84,11-14q-2.22-11.49-12-11.49c-1,0-2.84,1.75-5.48,5.25s-5.15,5.25-7.5,5.25c-4,0-9.18-4.33-15.48-13q-4.52-6.48-13.74-19.25l11.49,6c5,2.34,9,3.5,12,3.5q3.51,0,6.86-6.14t8.89-6.14a100.88,100.88,0,0,1,10,3c3.17-4.82,4.76-8.42,4.76-10.76,0-2-1.23-4.29-3.64-6.87s-4.62-3.86-6.63-3.86a16,16,0,0,0-3.87.76,16.47,16.47,0,0,1-3.86.76c-3,0-4.49-3.77-4.49-11.26,0-2,1.92-13.41,5.75-34.24-.17,2.5.92,7.16,3.23,14,2.84,8.32,6.18,12.51,10,12.51a12.08,12.08,0,0,0,4-1.49,11.67,11.67,0,0,1,4.76-1.48c3.83,0,7,2.18,9.51,6.5l3.76,6.74a11.57,11.57,0,0,0,8.75-3.73,12.76,12.76,0,0,0,3.5-9,9.3,9.3,0,0,0-4.62-8.38c-3.11-1.92-4.63-3.37-4.63-4.36q0-5.25,16.51-17.73c8.82-6.67,14.6-10.57,17.24-11.76q-10.74,14.52-10.76,21.23c0,2.35,1.42,4.82,4.26,7.5,3.5,3.17,5.51,5.41,6,6.73q2.49,5.75-.49,15.75c4.49,3.17,7.92,4.76,10.24,4.76,4.82,0,7.23-2.51,7.23-7.5,0-.49-.2-2.08-.63-4.75s-.53-4.16-.36-4.49c.66-2.35,5.25-3.5,13.73-3.5,5.35,0,16.41,1.48,33.25,4.49-3.66,1-9.18,2.51-16.51,4.49q-10,3-10,6.74a26,26,0,0,0,1.25,6,25.42,25.42,0,0,1,1.26,6.25c0,2.34-1.49,4.49-4.49,6.5l-8.49,6a41.33,41.33,0,0,0,4,6.5,8.26,8.26,0,0,0,6.73,3c2,0,3.83-1.75,5.52-5.25s4.32-5.25,8-5.25q6.73,0,15.25,12.51,4.75,7,14.73,21.27m-55.47-14.5q0-16-11.76-27.73t-27.73-11.76a40.32,40.32,0,0,0-40,39.49q-.26,16,11.89,27.61t28.13,11.62c11.32,0,20.8-3.7,28.36-11.13s11.29-16.77,11.13-28.1m-3.77,0q0,15.26-10.23,25.23t-25.49,10a34.74,34.74,0,0,1-25.23-10.23,34.7,34.7,0,0,1,.13-49.86,35.48,35.48,0,0,1,50.26.13c7.06,7,10.63,15.26,10.63,24.73">
	<animateTransform
  attributeType="xml" 
  attributeName="transform" 
  type="rotate" 
  from="0 157 157" 
  to="360 157 157" 
  dur="10s" 
  repeatCount="indefinite" 
/>
</path>
<path class="cls-1" d="M266,267a169.69,169.69,0,0,1-16.77,15,164.24,164.24,0,0,1-18.83,12.43,152.8,152.8,0,0,1-42.3,15.89A155.07,155.07,0,0,1,27.47,246.22a165.09,165.09,0,0,1-11.63-20A156.75,156.75,0,0,1,2,182.14,173.92,173.92,0,0,1,0,159,159.8,159.8,0,0,1,25.44,70.42,171.56,171.56,0,0,1,39.67,51.75,169.27,169.27,0,0,1,56.62,35.47,164.47,164.47,0,0,1,75.87,22,166,166,0,0,1,97,11.63a161.67,161.67,0,0,1,22.39-7l5.73-1.2c1.91-.4,3.85-.64,5.78-1L133.74,2l2.9-.31c1.94-.2,3.88-.43,5.82-.56a174,174,0,0,1,23.29.05,153.77,153.77,0,0,1,22.93,3.54c1.89.4,3.74,1,5.61,1.45l2.79.75,2.76.88c1.83.6,3.67,1.14,5.48,1.8l5.39,2.08a158.66,158.66,0,0,1,20.56,10.22,157.82,157.82,0,0,1,18.6,13.21A151.14,151.14,0,0,1,266,51,.75.75,0,0,1,265,52.06h0a190.78,190.78,0,0,0-17.73-13.36A166.48,166.48,0,0,0,228,28,155.63,155.63,0,0,0,207.72,20a160.13,160.13,0,0,0-21.09-4.95A151.36,151.36,0,0,0,102.7,25.48,152.06,152.06,0,0,0,26.93,97a149,149,0,0,0-8,19.78,152.6,152.6,0,0,0-5,20.81A161.12,161.12,0,0,0,12,159a162.32,162.32,0,0,0,1.33,21.47,151.81,151.81,0,0,0,4.46,21.07,149.71,149.71,0,0,0,7.53,20.21,153.53,153.53,0,0,0,10.44,18.92,148.78,148.78,0,0,0,151.45,65.15A151.55,151.55,0,0,0,265,266h0A.75.75,0,0,1,266,267Z">
	<animateTransform
  attributeType="xml" 
  attributeName="transform" 
  type="rotate" 
  from="0 157 157" 
  to="360 157 157" 
  dur="0.8s" 
  repeatCount="indefinite" 
/>
</path></svg>